<svg width="15" height="15" viewBox="0 0 15 15" fill="none" xmlns="http://www.w3.org/2000/svg">
<path d="M13.632 2.41773L11.7384 0.524109C11.3892 0.187856 10.9233 0 10.4386 0C9.95382 0 9.48794 0.187856 9.13877 0.524109L7.74 1.94268L1.53789 8.1184C1.49036 8.16955 1.45436 8.2303 1.43232 8.29654L0.0731316 12.3873C0.0299733 12.506 0.00548937 12.6306 0.000553747 12.7568C0.000553747 12.7568 0.000553747 12.7568 0.000553747 12.7964C-0.00631155 13.0273 0.0507726 13.2556 0.165503 13.4562C0.165503 13.4562 0.205091 13.5024 0.218287 13.5287C0.265791 13.6105 0.32343 13.6858 0.389835 13.7531C0.512828 13.8786 0.65964 13.9782 0.82166 14.0462C0.98368 14.1142 1.15764 14.1491 1.33335 14.149C1.47927 14.1479 1.62408 14.1234 1.76222 14.0764L5.85297 12.7172C5.91953 12.6927 5.98022 12.6544 6.03112 12.605L12.2134 6.41611L13.632 4.99095C13.807 4.81918 13.9451 4.61361 14.0381 4.38676C14.1312 4.1599 14.177 3.9165 14.173 3.67135C14.1614 3.19927 13.9675 2.75002 13.632 2.41773ZM5.68802 11.5625L4.13749 10.0186L2.58697 8.46809L8.0633 2.99836L11.1644 6.09281L5.68802 11.5625ZM1.43892 13.1593H1.31355C1.25214 13.1549 1.19296 13.1344 1.14201 13.0999C1.07965 13.0385 1.04207 12.9563 1.03644 12.8689C1.03057 12.8274 1.03057 12.7852 1.03644 12.7436L1.14201 12.2289L1.92717 13.0141L1.43892 13.1593ZM2.97625 12.6512L1.5049 11.1799L2.10531 9.38521L3.42491 10.7048L4.74451 12.0244L2.97625 12.6512ZM12.9326 4.31795L11.8637 5.39343L8.76268 2.29237L9.83816 1.2235C9.99766 1.06475 10.2135 0.975629 10.4386 0.975629C10.6636 0.975629 10.8795 1.06475 11.039 1.2235L12.9326 3.11712C13.0914 3.27662 13.1805 3.4925 13.1805 3.71754C13.1805 3.94257 13.0914 4.15845 12.9326 4.31795Z" fill="black"/>
</svg>
