<svg width="21" height="22" viewBox="0 0 21 22" fill="none" xmlns="http://www.w3.org/2000/svg">
<path d="M9.39 21.5021H4.95C3.67919 21.5399 2.44512 21.073 1.51755 20.2035C0.58998 19.3341 0.0443726 18.1327 0 16.8621V4.64213C0.0443726 3.37153 0.58998 2.17019 1.51755 1.30071C2.44512 0.431229 3.67919 -0.0356525 4.95 0.00212649H9.39C10.6598 -0.0356139 11.8928 0.431579 12.8188 1.30132C13.7448 2.17107 14.2882 3.37242 14.33 4.64213C14.33 4.84369 14.2499 5.037 14.1074 5.17953C13.9649 5.32206 13.7716 5.40213 13.57 5.40213C13.3684 5.40213 13.1751 5.32206 13.0326 5.17953C12.8901 5.037 12.81 4.84369 12.81 4.64213C12.7659 3.77641 12.382 2.96306 11.7416 2.37885C11.1012 1.79463 10.2561 1.48675 9.39 1.52213H4.95C4.08319 1.4841 3.23663 1.79107 2.59565 2.37582C1.95467 2.96058 1.57149 3.77548 1.53 4.64213V16.8621C1.57149 17.7288 1.95467 18.5437 2.59565 19.1284C3.23663 19.7132 4.08319 20.0202 4.95 19.9821H9.39C10.2561 20.0175 11.1012 19.7096 11.7416 19.1254C12.382 18.5412 12.7659 17.7278 12.81 16.8621C12.81 16.6606 12.8901 16.4673 13.0326 16.3247C13.1751 16.1822 13.3684 16.1021 13.57 16.1021C13.7716 16.1021 13.9649 16.1822 14.1074 16.3247C14.2499 16.4673 14.33 16.6606 14.33 16.8621C14.2882 18.1318 13.7448 19.3332 12.8188 20.2029C11.8928 21.0727 10.6598 21.5399 9.39 21.5021ZM6.94 10.7521C6.94 10.8519 6.95966 10.9508 6.99785 11.043C7.03605 11.1352 7.09203 11.219 7.1626 11.2895C7.23317 11.3601 7.31695 11.4161 7.40916 11.4543C7.50137 11.4925 7.6002 11.5121 7.7 11.5121H17.77L16.06 13.1821C15.9886 13.2528 15.932 13.3369 15.8933 13.4296C15.8547 13.5223 15.8348 13.6217 15.8348 13.7221C15.8348 13.8226 15.8547 13.922 15.8933 14.0147C15.932 14.1074 15.9886 14.1915 16.06 14.2621C16.1308 14.333 16.215 14.389 16.3077 14.4268C16.4005 14.4645 16.4999 14.4834 16.6 14.4821C16.6986 14.4832 16.7964 14.4642 16.8875 14.4264C16.9786 14.3886 17.0611 14.3327 17.13 14.2621L20.13 11.2621C20.2014 11.1915 20.258 11.1074 20.2967 11.0147C20.3353 10.922 20.3552 10.8226 20.3552 10.7221C20.3552 10.6217 20.3353 10.5223 20.2967 10.4296C20.258 10.3369 20.2014 10.2528 20.13 10.1821L17.13 7.18213C17.0602 7.11107 16.9769 7.05464 16.8851 7.01611C16.7932 6.97759 16.6946 6.95775 16.595 6.95775C16.4954 6.95775 16.3968 6.97759 16.3049 7.01611C16.2131 7.05464 16.1298 7.11107 16.06 7.18213C15.9886 7.25279 15.932 7.3369 15.8933 7.42959C15.8547 7.52227 15.8348 7.6217 15.8348 7.72213C15.8348 7.82255 15.8547 7.92198 15.8933 8.01467C15.932 8.10735 15.9886 8.19146 16.06 8.26213L17.73 9.93213H7.7C7.59494 9.9318 7.49095 9.95326 7.3946 9.99515C7.29825 10.037 7.21164 10.0984 7.14022 10.1755C7.0688 10.2526 7.01414 10.3436 6.97968 10.4428C6.94521 10.5421 6.93171 10.6474 6.94 10.7521Z" fill="black"/>
</svg>
