<svg width="22" height="21" viewBox="0 0 22 21" fill="none" xmlns="http://www.w3.org/2000/svg">
<path d="M7.65972 20.7114C7.19451 20.7076 6.73803 20.5847 6.33381 20.3544L4.67131 19.3855C4.3688 19.2124 4.10385 18.9807 3.89194 18.704C3.68004 18.4273 3.52544 18.1112 3.4372 17.774C3.34388 17.4334 3.31927 17.0776 3.36479 16.7274C3.41032 16.3772 3.52508 16.0395 3.70238 15.7341L4.15115 14.9692C3.93102 14.643 3.73337 14.3023 3.55959 13.9492H2.64165C2.2934 13.9479 1.94883 13.878 1.62761 13.7435C1.30639 13.609 1.0148 13.4125 0.769504 13.1653C0.524206 12.9181 0.329998 12.625 0.19797 12.3028C0.0659412 11.9805 -0.00132228 11.6355 1.96911e-05 11.2872V9.33914C0.00297465 8.99883 0.0729527 8.66243 0.205956 8.34918C0.338959 8.03592 0.53238 7.75194 0.775169 7.51346C1.02001 7.26855 1.31112 7.07479 1.63156 6.94346C1.95199 6.81213 2.29535 6.74586 2.64165 6.74851H3.53919C3.71426 6.3941 3.9154 6.05319 4.14095 5.72857L3.69218 4.92283C3.51918 4.61949 3.40829 4.28475 3.36597 3.93812C3.32364 3.59149 3.35074 3.2399 3.44567 2.90385C3.5406 2.5678 3.70147 2.254 3.9189 1.98075C4.13633 1.70749 4.40597 1.48025 4.71211 1.31226L6.3848 0.353525C6.68881 0.18327 7.02339 0.0745965 7.36942 0.0337146C7.71544 -0.00716731 8.06613 0.0205442 8.40145 0.115265C8.73676 0.209986 9.05012 0.36986 9.32361 0.585748C9.59711 0.801635 9.82537 1.06931 9.99537 1.37346L10.4339 2.13841C10.794 2.11801 11.155 2.11801 11.5151 2.13841L11.9944 1.33266C12.1688 1.03121 12.4009 0.767066 12.6774 0.555315C12.9539 0.343563 13.2694 0.188351 13.6059 0.0985412C13.9462 0.00231607 14.3024 -0.0237964 14.6531 0.0217875C15.0037 0.0673715 15.3415 0.183702 15.6458 0.363724L17.3083 1.32246C17.9166 1.67439 18.3604 2.25342 18.5421 2.93233C18.7237 3.61124 18.6285 4.3345 18.2772 4.94322L17.8387 5.71837C18.0683 6.04231 18.2728 6.38327 18.4506 6.73831H19.3686C20.071 6.74638 20.7418 7.0318 21.2347 7.53235C21.7277 8.03291 22.0027 8.70802 22 9.41053V11.379C21.992 12.0779 21.7093 12.7457 21.2132 13.238C20.717 13.7304 20.0471 14.0078 19.3482 14.0104H18.4404C18.2732 14.3412 18.0859 14.6614 17.8795 14.9692L18.3384 15.7749C18.5087 16.0789 18.6173 16.4135 18.6582 16.7595C18.6991 17.1056 18.6714 17.4562 18.5767 17.7916C18.482 18.1269 18.3221 18.4402 18.1062 18.7137C17.8903 18.9872 17.6226 19.2155 17.3185 19.3855L15.6458 20.3442C15.3421 20.5158 15.0075 20.6256 14.6611 20.6672C14.3148 20.7088 13.9637 20.6814 13.628 20.5866C13.2923 20.4917 12.9787 20.3314 12.7054 20.1147C12.432 19.8981 12.2042 19.6294 12.0352 19.3243L11.5865 18.5593C11.2063 18.5898 10.8243 18.5898 10.4441 18.5593L9.97497 19.3549C9.74457 19.7665 9.40856 20.1091 9.00159 20.3476C8.59461 20.586 8.1314 20.7116 7.65972 20.7114ZM2.66205 8.3192C2.3661 8.31855 2.08125 8.43176 1.8665 8.63538C1.76245 8.74001 1.68007 8.86413 1.62407 9.00065C1.56806 9.13716 1.53953 9.28338 1.54012 9.43093V11.3484C1.55803 11.6299 1.68134 11.8944 1.88548 12.089C2.08961 12.2837 2.3596 12.3944 2.64165 12.3989H4.04916C4.20021 12.3965 4.34842 12.4401 4.47412 12.5239C4.59982 12.6077 4.69705 12.7277 4.75291 12.8681C4.99066 13.4287 5.29914 13.9565 5.67085 14.4388C5.76196 14.5608 5.81616 14.7063 5.82701 14.8582C5.83785 15.0101 5.80489 15.1619 5.73205 15.2955L5.02829 16.4889C4.88518 16.7504 4.84516 17.056 4.9161 17.3456C4.99338 17.6301 5.18049 17.8722 5.43626 18.0188L7.09876 18.9877C7.2264 19.0637 7.36823 19.1129 7.51555 19.1322C7.66287 19.1515 7.81258 19.1405 7.9555 19.0999C8.24132 19.0201 8.4858 18.834 8.63885 18.5797L9.34261 17.3558C9.4202 17.2259 9.53368 17.1212 9.66939 17.0542C9.80509 16.9873 9.95725 16.961 10.1076 16.9784C10.697 17.0499 11.2928 17.0499 11.8822 16.9784C12.032 16.9545 12.1854 16.9768 12.3221 17.0424C12.4588 17.108 12.5722 17.2138 12.6472 17.3456L13.3407 18.5491C13.4883 18.8074 13.7323 18.9965 14.0191 19.0749C14.306 19.1533 14.6123 19.1146 14.8706 18.9673L16.5331 18.0086C16.6624 17.938 16.776 17.8419 16.8672 17.7262C16.9583 17.6105 17.0251 17.4776 17.0635 17.3354C17.1344 17.0458 17.0944 16.7402 16.9513 16.4787L16.2476 15.2547C16.1655 15.1288 16.1218 14.9818 16.1218 14.8315C16.1218 14.6812 16.1655 14.5341 16.2476 14.4082C16.6064 13.9449 16.9046 13.4376 17.1349 12.8987C17.1852 12.7538 17.2807 12.629 17.4075 12.5426C17.5342 12.4563 17.6854 12.4131 17.8387 12.4193H19.2258C19.5188 12.431 19.8051 12.3294 20.0254 12.1358C20.2456 11.9421 20.3829 11.6711 20.4089 11.379V9.44113C20.4095 9.29358 20.3809 9.14736 20.3249 9.01085C20.2689 8.87433 20.1866 8.75021 20.0825 8.64558C19.981 8.53954 19.8591 8.45507 19.7241 8.39724C19.5892 8.33941 19.444 8.30939 19.2972 8.309H17.8999C17.7486 8.30651 17.6013 8.25979 17.4763 8.17461C17.3512 8.08942 17.2538 7.9695 17.1961 7.82964C16.9581 7.27334 16.6459 6.75183 16.268 6.27934C16.176 6.15743 16.1221 6.01108 16.1131 5.85867C16.104 5.70625 16.1401 5.55455 16.217 5.42259L16.9105 4.21907C17.0578 3.96071 17.0965 3.65444 17.0181 3.36756C16.9397 3.08069 16.7506 2.83668 16.4923 2.68917L14.8299 1.68964C14.5893 1.55042 14.304 1.51018 14.0343 1.57744C13.7475 1.65535 13.5024 1.84194 13.3509 2.09761L12.6472 3.32153C12.5716 3.45328 12.4584 3.55953 12.3222 3.62673C12.186 3.69394 12.0328 3.71907 11.8822 3.69891C11.3099 3.62755 10.7309 3.62755 10.1586 3.69891C10.0095 3.71833 9.85799 3.69278 9.72351 3.62555C9.58904 3.55831 9.47772 3.45245 9.4038 3.32153L8.66945 2.10781C8.52005 1.8516 8.27606 1.66425 7.98997 1.58605C7.70387 1.50785 7.39851 1.54505 7.13955 1.68964L5.46686 2.62798C5.20891 2.77569 5.0194 3.01893 4.93926 3.30517C4.85911 3.59141 4.89475 3.89769 5.03849 4.15788L5.73205 5.39199C5.81712 5.52732 5.85704 5.68617 5.84604 5.84564C5.83505 6.00511 5.7737 6.15697 5.67085 6.27934C5.3021 6.74891 4.99371 7.26289 4.75291 7.80924C4.69587 7.94878 4.59836 8.06804 4.47293 8.15166C4.3475 8.23528 4.1999 8.27943 4.04916 8.27841H2.66205V8.3192ZM10.9745 14.4388C10.1676 14.4388 9.37883 14.1995 8.70792 13.7512C8.03702 13.303 7.51411 12.6658 7.20532 11.9203C6.89653 11.1748 6.81574 10.3545 6.97316 9.56315C7.13058 8.77176 7.51913 8.04482 8.08969 7.47426C8.66026 6.9037 9.3872 6.51514 10.1786 6.35773C10.97 6.20031 11.7903 6.2811 12.5357 6.58989C13.2812 6.89867 13.9184 7.42158 14.3667 8.09249C14.815 8.7634 15.0542 9.55217 15.0542 10.3591C15.0542 11.4411 14.6244 12.4788 13.8593 13.2439C13.0942 14.009 12.0565 14.4388 10.9745 14.4388ZM10.9745 7.80924C10.4702 7.80924 9.97721 7.95878 9.55789 8.23896C9.13857 8.51914 8.81175 8.91737 8.61876 9.38329C8.42577 9.84921 8.37528 10.3619 8.47366 10.8565C8.57205 11.3511 8.8149 11.8055 9.1715 12.1621C9.5281 12.5187 9.98244 12.7615 10.4771 12.8599C10.9717 12.9583 11.4844 12.9078 11.9503 12.7148C12.4162 12.5218 12.8144 12.195 13.0946 11.7757C13.3748 11.3564 13.5243 10.8634 13.5243 10.3591C13.5243 9.68281 13.2557 9.03425 12.7775 8.55607C12.2993 8.07788 11.6508 7.80924 10.9745 7.80924Z" fill="black"/>
</svg>
