<svg width="14" height="16" viewBox="0 0 14 16" fill="none" xmlns="http://www.w3.org/2000/svg">
<path d="M4.07114 15.5154C3.42959 15.5097 2.81381 15.278 2.34611 14.8662C1.87842 14.4544 1.59305 13.8927 1.5467 13.2927L0.984855 5.75876C0.979802 5.68768 0.989728 5.61637 1.01407 5.54889C1.03841 5.48141 1.07668 5.41909 1.12671 5.36548C1.17674 5.31187 1.23754 5.26802 1.30564 5.23645C1.37374 5.20487 1.4478 5.18618 1.52361 5.18144C1.59941 5.1767 1.67547 5.18601 1.74744 5.20883C1.8194 5.23165 1.88587 5.26754 1.94305 5.31445C2.00022 5.36136 2.04698 5.41837 2.08066 5.48222C2.11434 5.54607 2.13427 5.61552 2.13932 5.68659L2.68577 13.2206C2.71306 13.5524 2.87365 13.8621 3.13509 14.0871C3.39653 14.3122 3.73933 14.4358 4.09423 14.4329L9.90506 14.368C10.2581 14.3647 10.5965 14.2352 10.8512 14.0058C11.1058 13.7765 11.2574 13.4646 11.275 13.134L11.7291 5.68659C11.7409 5.54303 11.8118 5.40938 11.9266 5.3138C12.0415 5.21823 12.1914 5.16819 12.3448 5.17422C12.4966 5.18351 12.6384 5.24861 12.7393 5.35537C12.8402 5.46213 12.892 5.60191 12.8836 5.74432L12.4295 13.1989C12.3908 13.8016 12.1108 14.3684 11.6456 14.7858C11.1804 15.2033 10.5643 15.4406 9.92045 15.4505L4.10962 15.5154H4.07114ZM9.22777 8.37112C9.22577 8.22815 9.16432 8.09157 9.05649 7.99047C8.94867 7.88937 8.803 7.83175 8.65053 7.82988H5.21791C5.06482 7.82988 4.918 7.8869 4.80974 7.9884C4.70149 8.08991 4.64068 8.22757 4.64068 8.37112C4.64068 8.51466 4.70149 8.65232 4.80974 8.75383C4.918 8.85533 5.06482 8.91235 5.21791 8.91235H8.65053C8.72762 8.91428 8.80434 8.9017 8.87616 8.87537C8.94798 8.84903 9.01344 8.80947 9.06869 8.75902C9.12393 8.70857 9.16783 8.64825 9.1978 8.58162C9.22776 8.515 9.24319 8.44342 9.24316 8.37112H9.22777ZM8.62744 11.0412C8.62744 10.8977 8.56663 10.76 8.45837 10.6585C8.35012 10.557 8.2033 10.5 8.05021 10.5H5.81823C5.66514 10.5 5.51832 10.557 5.41007 10.6585C5.30181 10.76 5.241 10.8977 5.241 11.0412C5.241 11.1847 5.30181 11.3224 5.41007 11.4239C5.51832 11.5254 5.66514 11.5824 5.81823 11.5824H8.05021C8.20268 11.5806 8.34835 11.5229 8.45617 11.4219C8.56399 11.3208 8.62545 11.1842 8.62744 11.0412ZM13.861 3.8031C13.8423 3.93188 13.7741 4.04984 13.6693 4.13487C13.5644 4.21989 13.4301 4.26614 13.2915 4.26495H13.2068C9.05231 3.7296 4.83922 3.7296 0.684693 4.26495C0.608324 4.27732 0.530094 4.27533 0.45455 4.25911C0.379006 4.24289 0.307653 4.21275 0.244636 4.17045C0.18162 4.12815 0.128198 4.07453 0.0874721 4.01271C0.0467466 3.95088 0.0195303 3.88208 0.00740458 3.81031C-0.0170197 3.66869 0.0195215 3.52377 0.108998 3.4074C0.198475 3.29103 0.333566 3.21272 0.484585 3.1897C0.584639 3.1897 1.64675 3.0165 3.31688 2.89382L3.59396 1.53713C3.68189 1.10404 3.92847 0.713378 4.29106 0.4327C4.65365 0.152022 5.10945 -0.0010263 5.57964 2.15229e-05H8.2965C8.7702 -0.00209689 9.22959 0.152226 9.59408 0.435928C9.95857 0.719629 10.2049 1.1146 10.2899 1.55156L10.5516 2.89382C11.4674 2.96599 12.4064 3.05258 13.3685 3.1897C13.4439 3.19943 13.5165 3.22305 13.5821 3.2592C13.6477 3.29535 13.7051 3.34331 13.7508 3.40032C13.7966 3.45733 13.8299 3.52226 13.8488 3.59139C13.8678 3.66051 13.8719 3.73246 13.861 3.8031ZM6.59558 2.77114H9.35091L9.1508 1.7464C9.11479 1.56037 9.01036 1.39205 8.85568 1.27075C8.70099 1.14944 8.50585 1.08283 8.30419 1.08249H5.58734C5.38586 1.08222 5.19052 1.14755 5.0347 1.26733C4.87889 1.3871 4.77226 1.55388 4.73303 1.73919L4.52523 2.77114H6.59558Z" fill="black"/>
</svg>
