<svg width="24" height="24" viewBox="0 0 24 24" fill="none" xmlns="http://www.w3.org/2000/svg">
<path d="M11.6826 1.87012C12.6495 1.87512 13.5852 2.2138 14.3311 2.8291C15.0769 3.44441 15.5868 4.29878 15.7754 5.24707H16.4307C17.4397 5.25152 18.4188 5.58997 19.2149 6.20996C20.011 6.8302 20.5799 7.69734 20.8311 8.6748C20.8812 8.87288 20.8507 9.08324 20.7461 9.25879C20.6416 9.43421 20.4714 9.56108 20.2734 9.61133C20.0754 9.66152 19.865 9.63088 19.6895 9.52637C19.514 9.42185 19.3872 9.25167 19.3369 9.05371C19.1725 8.40291 18.7949 7.82569 18.2647 7.41406C17.7343 7.00242 17.0815 6.78005 16.4102 6.78223H5.56349C4.75821 6.78218 3.98533 7.09847 3.41114 7.66309C2.83697 8.22775 2.50757 8.99558 2.49415 9.80078C2.50424 9.83387 2.50426 9.86926 2.49415 9.90234V17.5264C2.49427 18.3404 2.81798 19.1207 3.39357 19.6963C3.96919 20.2719 4.74947 20.5956 5.56349 20.5957H16.4414C17.0888 20.5887 17.7173 20.377 18.2373 19.9912C18.7574 19.6053 19.1426 19.065 19.3369 18.4473C19.3983 18.2554 19.5316 18.0945 19.709 17.999C19.8865 17.9036 20.0941 17.8809 20.2881 17.9355C20.4821 17.9967 20.6443 18.1321 20.7383 18.3125C20.8322 18.4928 20.851 18.7035 20.7901 18.8975C20.5096 19.8345 19.933 20.6556 19.1475 21.2383C18.3618 21.821 17.4088 22.1344 16.4307 22.1309H5.55372C4.95441 22.1295 4.36081 22.0099 3.80763 21.7793C3.25453 21.5487 2.75189 21.2118 2.32911 20.7871C1.90628 20.3624 1.57187 19.8579 1.34376 19.3037C1.11567 18.7495 0.998669 18.1559 1.00001 17.5566V6.0957C1.00553 4.97504 1.45373 3.90189 2.24708 3.11035C3.04066 2.31869 4.11541 1.87281 5.23634 1.87012H11.6826ZM21.2803 10.8242C21.7309 10.8241 22.1639 11.0007 22.4854 11.3164C22.8068 11.6321 22.9919 12.0613 23 12.5117V14.835C23 15.2909 22.8185 15.7284 22.4961 16.0508C22.1737 16.373 21.7361 16.5537 21.2803 16.5537H19.1016C18.3417 16.5537 17.6125 16.2522 17.0752 15.7148C16.5379 15.1775 16.2363 14.4484 16.2363 13.6885C16.2364 12.9288 16.5381 12.2003 17.0752 11.6631C17.6125 11.1258 18.3417 10.8242 19.1016 10.8242H21.2803ZM19.1016 12.3584C18.7488 12.3584 18.4096 12.4986 18.1602 12.748C17.9109 12.9974 17.7706 13.3359 17.7705 13.6885C17.7705 14.0413 17.9107 14.3804 18.1602 14.6299C18.4096 14.8793 18.7488 15.0195 19.1016 15.0195H21.2803C21.3291 15.0195 21.3766 14.9994 21.4111 14.9648C21.4455 14.9303 21.4648 14.8837 21.4649 14.835V12.543C21.4649 12.4941 21.4457 12.4467 21.4111 12.4121C21.3766 12.3777 21.3291 12.3584 21.2803 12.3584H19.1016ZM11.8877 9.78027C12.0911 9.78037 12.2859 9.86104 12.4297 10.0049C12.5735 10.1487 12.6552 10.3435 12.6553 10.5469C12.6553 10.7504 12.5736 10.9459 12.4297 11.0898C12.2859 11.2336 12.0911 11.3144 11.8877 11.3145H5.584C5.3805 11.3144 5.18493 11.2337 5.04103 11.0898C4.89725 10.9459 4.81642 10.7503 4.81642 10.5469C4.81651 10.3436 4.89742 10.1487 5.04103 10.0049C5.18493 9.86098 5.3805 9.7803 5.584 9.78027H11.8877ZM5.23634 3.40527C4.52261 3.40795 3.83873 3.69167 3.33302 4.19531C2.82739 4.69903 2.54067 5.38202 2.53517 6.0957L2.49415 6.49512C2.50087 6.479 3.0223 5.24715 5.56349 5.24707H14.2002C14.0244 4.70838 13.6816 4.23931 13.2217 3.9082C12.7618 3.5771 12.2083 3.40118 11.6416 3.40527H5.23634Z" fill="black"/>
</svg>
